<svg xmlns="http://www.w3.org/2000/svg" viewBox="0 0 500 500"><g id="freepik--background-complete--inject-5"><rect x="280.5" y="53.65" width="73.43" height="71.14" style="fill:#ebebeb"></rect><rect x="288.89" y="61.78" width="56.65" height="54.88" style="fill:#fff"></rect><rect x="288.89" y="61.78" width="2.21" height="54.88" style="fill:#dbdbdb"></rect><rect x="353.93" y="53.65" width="2.21" height="71.14" style="fill:#dbdbdb"></rect><path d="M304.84,96.13c5.38,11.86,26.07,9.68,27.34-4.93.64-7.37-4.59-16.33-14.82-16.32h-.05C305.28,75.78,301.14,88,304.84,96.13Z" style="fill:#ebebeb"></path><path d="M303.85,71.91a4.8,4.8,0,0,1,3,1.49c.83.78,1.76,2.22,1.4,3.39-.09.3-.28.24-.6.23a4.33,4.33,0,0,1-2.6-1.42,15.33,15.33,0,0,1-2.05-2.29A.93.93,0,0,1,303.85,71.91Z" style="fill:#ebebeb"></path><path d="M312.31,67.46a5,5,0,0,1,2.12,2.93c.32.94.59,2.36-.12,3.17a.5.5,0,0,1-.59.08c-.85-.41-1.23-1.65-1.56-2.46a8.37,8.37,0,0,1-.83-3.16A.66.66,0,0,1,312.31,67.46Z" style="fill:#ebebeb"></path><path d="M298.71,78.36c1.9-.41,4.49.22,5.21,2.23a.57.57,0,0,1-.39.69,3.42,3.42,0,0,1-2.23-.19c-.86-.26-1.75-.32-2.59-.65S297.57,78.61,298.71,78.36Z" style="fill:#ebebeb"></path><path d="M321.61,69.57a6.71,6.71,0,0,1,1.71-2.22c.35-.35.81,0,.74.46-.12.85-.1,1.73-.24,2.58a6.93,6.93,0,0,1-.64,2.45,1.08,1.08,0,0,1-2-.29A4.89,4.89,0,0,1,321.61,69.57Z" style="fill:#ebebeb"></path><path d="M298.2,85.64A5.17,5.17,0,0,1,301.68,87a.65.65,0,0,1-.13,1,5.89,5.89,0,0,1-3.55.33c-.86-.07-2.81,0-2.71-1.31S297.24,85.56,298.2,85.64Z" style="fill:#ebebeb"></path><path d="M297.06,96.24a5.47,5.47,0,0,1,4.77-2.61.7.7,0,0,1,.6,1,6,6,0,0,1-4.8,2.57A.67.67,0,0,1,297.06,96.24Z" style="fill:#ebebeb"></path><path d="M300.41,105.34a5.83,5.83,0,0,1,2-2.55,6,6,0,0,1,3.16-1.56c.39,0,.58.44.47.81a9,9,0,0,1-.88,1.6,5.88,5.88,0,0,1-1.21,1.42,3.83,3.83,0,0,1-3,1A.61.61,0,0,1,300.41,105.34Z" style="fill:#ebebeb"></path><path d="M312.18,104.9a.53.53,0,0,1,.9,0,4.1,4.1,0,0,1,.22,2.89,5.54,5.54,0,0,1-1.39,3.16,1.06,1.06,0,0,1-1.75-.46C309.62,108.47,311.09,106.44,312.18,104.9Z" style="fill:#ebebeb"></path><path d="M321.82,104.6a.68.68,0,0,1,1.06-.14,5.06,5.06,0,0,1,1.37,3c.11,1,.39,2.3-.1,3.19a1,1,0,0,1-1.56.2c-.73-.62-1-2.09-1.19-3A4.52,4.52,0,0,1,321.82,104.6Z" style="fill:#ebebeb"></path><path d="M330.05,99.88a3.68,3.68,0,0,1,1.21.32,9.5,9.5,0,0,1,1.16.84,15.9,15.9,0,0,0,1.91,1.47.81.81,0,0,1-.41,1.5,4.07,4.07,0,0,1-3.06-.78,4.61,4.61,0,0,1-1.18-1.27,3,3,0,0,1-.34-1.54A.57.57,0,0,1,330.05,99.88Z" style="fill:#ebebeb"></path><path d="M334.37,92a4.07,4.07,0,0,1,3.49.77c.67.54,1.55,1.61,1.22,2.53a.59.59,0,0,1-.42.42,4.76,4.76,0,0,1-2.26-.56,4.82,4.82,0,0,1-2.7-1.52A1.12,1.12,0,0,1,334.37,92Z" style="fill:#ebebeb"></path><path d="M333.27,83.92a2.46,2.46,0,0,1,1.6-.93,21.3,21.3,0,0,1,3.07-.58c.55-.09,1.21.48.81,1a5.89,5.89,0,0,1-2.23,2.09c-1,.47-2.45,1-3.21-.12A1.34,1.34,0,0,1,333.27,83.92Z" style="fill:#ebebeb"></path><path d="M328.14,76.49c.35-1.94,2.42-2.82,4.07-3.33.69-.21,1,.64.64,1.12s-.83,1.11-1.27,1.64-.67,1.06-1,1.59A1.33,1.33,0,0,1,328.14,76.49Z" style="fill:#ebebeb"></path><path d="M313.53,85c0,.54-.44-.51-1-.51s-1,1-1,.51a1,1,0,0,1,2,0Z" style="fill:#a6a6a6"></path><path d="M323.77,85c0,.54-.44-.5-1-.5s-1,1-1,.5a1,1,0,0,1,2,0Z" style="fill:#a6a6a6"></path><path d="M310.7,87.64a2.34,2.34,0,1,1-2.34-2.33A2.34,2.34,0,0,1,310.7,87.64Z" style="fill:#fff"></path><path d="M329.74,87.64a2.34,2.34,0,1,1-2.34-2.33A2.34,2.34,0,0,1,329.74,87.64Z" style="fill:#fff"></path><path d="M315.78,85.35a2.07,2.07,0,0,0,.81.8,2.5,2.5,0,0,0,2,0,2.12,2.12,0,0,0,.82-.79,1.45,1.45,0,0,1-.51,1.23,2,2,0,0,1-1.32.45,2,2,0,0,1-1.32-.46A1.46,1.46,0,0,1,315.78,85.35Z" style="fill:#a6a6a6"></path><rect x="373.96" y="124.28" width="73.43" height="71.14" style="fill:#ebebeb"></rect><rect x="382.35" y="132.41" width="56.65" height="54.88" style="fill:#fff"></rect><rect x="382.35" y="132.41" width="2.21" height="54.88" style="fill:#dbdbdb"></rect><rect x="447.39" y="124.28" width="2.21" height="71.14" style="fill:#dbdbdb"></rect><path d="M432,162.44a24.08,24.08,0,0,0-7-9.62,16.94,16.94,0,0,0-13.41-3.94,18.08,18.08,0,0,0-4.26,1.13c-7.81,3.13-10.86,11-11.55,13.82a10.57,10.57,0,0,1-2.17-.54c-.32-.32,3.22-15.47,17.43-17.43a19.7,19.7,0,0,1,2.25-.19A18.21,18.21,0,0,1,424.21,149c5.78,4,8.89,10.33,9.31,12.22C433.6,161.6,433,162,432,162.44Z" style="fill:#a6a6a6"></path><path d="M432,162.44a18.05,18.05,0,0,1-2,.72A21.93,21.93,0,0,0,424,155.1a15,15,0,0,0-11.89-3.48,15.54,15.54,0,0,0-4.45,1.29c-5.94,2.72-8.58,8.55-9.42,11.35l-2.38-.43c.69-2.82,3.74-10.69,11.55-13.82a18.08,18.08,0,0,1,4.26-1.13A16.94,16.94,0,0,1,425,152.82,24.08,24.08,0,0,1,432,162.44Z" style="fill:#c7c7c7"></path><path d="M430,163.16a16.07,16.07,0,0,1-2.37.55,18.72,18.72,0,0,0-5.89-6.88,12.67,12.67,0,0,0-9.23-2.18,13.79,13.79,0,0,0-2.88.73c-5.17,1.94-7.68,6.56-8.68,9.33l-2.76-.45c.84-2.8,3.48-8.63,9.42-11.35a15.54,15.54,0,0,1,4.45-1.29A15,15,0,0,1,424,155.1,21.93,21.93,0,0,1,430,163.16Z" style="fill:#dbdbdb"></path><path d="M427.63,163.71a1.4,1.4,0,0,1-.78,0c-.35-.26-3.12-4.19-7.2-6.19a10.22,10.22,0,0,0-5.48-1.13,10.71,10.71,0,0,0-1.95.35c-6.05,1.7-8.19,8.3-9,8.3-.17,0-1.08-.13-2.28-.32,1-2.77,3.51-7.39,8.68-9.33a13.79,13.79,0,0,1,2.88-.73,12.67,12.67,0,0,1,9.23,2.18A18.72,18.72,0,0,1,427.63,163.71Z" style="fill:#ebebeb"></path><path d="M436.37,164.88a4.94,4.94,0,0,1-.29,2,5,5,0,0,1-2.43,2.75c-3,1.63-5.51-1.13-5.51-1.13a4.76,4.76,0,0,1-3.28,1.79,3.29,3.29,0,0,1-3.11-2s-1.9-.5-1.92-2c0-2,2.24-1.89,2.24-1.89s-.37-3.52,2.23-4.42a3.84,3.84,0,0,1,2.48,0,4,4,0,0,1,1.77,1.15,3.6,3.6,0,0,1,3.23-2.76c2-.07,3.25,2.28,3.25,2.28a2.25,2.25,0,0,1,2.35,1.21A2.55,2.55,0,0,1,436.37,164.88Z" style="fill:#ebebeb"></path><path d="M389.89,162.64a5.18,5.18,0,0,1,4.13-3.88c3.51-.68,5.11,2.8,5.11,2.8a4.93,4.93,0,0,1,3.79-.78,3.43,3.43,0,0,1,2.46,2.93s1.73,1.06,1.29,2.56c-.58,2-2.78,1.18-2.78,1.18s-.71,3.6-3.56,3.69a3.89,3.89,0,0,1-2.46-.7,4.34,4.34,0,0,1-1.41-1.67,3.72,3.72,0,0,1-4,1.74c-2-.55-2.52-3.24-2.52-3.24a2.32,2.32,0,0,1-2-1.91A2.63,2.63,0,0,1,389.89,162.64Z" style="fill:#ebebeb"></path><path d="M409.23,153.15c0,.55-.44-.51-1-.51s-1,1.06-1,.51a1,1,0,0,1,2,0Z" style="fill:#a6a6a6"></path><path d="M419.47,153.15c0,.55-.44-.49-1-.49s-1,1-1,.49a1,1,0,0,1,2,0Z" style="fill:#a6a6a6"></path><path d="M406.39,155.75a2.34,2.34,0,1,1-2.34-2.33A2.34,2.34,0,0,1,406.39,155.75Z" style="fill:#fff"></path><path d="M425.43,155.75a2.34,2.34,0,1,1-2.33-2.33A2.33,2.33,0,0,1,425.43,155.75Z" style="fill:#fff"></path><path d="M411.47,153.46a2.07,2.07,0,0,0,.81.8,2.23,2.23,0,0,0,1,.22,2.31,2.31,0,0,0,1-.22,2.13,2.13,0,0,0,.81-.8,1.46,1.46,0,0,1-.5,1.23,2,2,0,0,1-1.33.46,2,2,0,0,1-1.32-.47A1.46,1.46,0,0,1,411.47,153.46Z" style="fill:#a6a6a6"></path><path d="M87.59,279.56l-13.12.27-6.66.12c-2.23,0-4.47,0-6.7.05h-.44v-.44l-.06-11.19v-.51h.5l13.24.06c4.42,0,8.83.11,13.24.16h.28v.27c0,1.89-.09,3.78-.13,5.65Zm0,0-.14-5.66c0-1.86-.11-3.7-.13-5.53l.27.27c-4.41.05-8.82.16-13.24.16l-13.24.07.5-.5,0,11.19-.45-.45c2.18,0,4.36,0,6.55.05l6.58.12Z" style="fill:#ebebeb"></path><path d="M72.82,293.67l-13.12.27-6.66.12c-2.23,0-4.47,0-6.7.05H45.9v-.44l-.06-11.19V282h.5l13.24.06c4.41,0,8.83.11,13.24.16h.28v.27c0,1.89-.08,3.78-.13,5.65Zm0,0L72.68,288c-.05-1.86-.11-3.7-.13-5.53l.27.27c-4.41.05-8.83.16-13.24.16L46.34,283l.5-.49-.05,11.19-.45-.45c2.18,0,4.36,0,6.55,0l6.58.12Z" style="fill:#ebebeb"></path><path d="M363.58,162.31l-13.12.28-6.66.11c-2.23.05-4.47,0-6.7.06h-.44v-.45l-.06-11.19v-.5h.5l13.24.07c4.42,0,8.83.11,13.24.16h.28v.27c0,1.9-.09,3.79-.14,5.66Zm0,0-.14-5.65c0-1.87-.11-3.71-.13-5.54l.27.27c-4.41.06-8.82.16-13.24.17l-13.24.06.5-.5-.05,11.19-.45-.44c2.18,0,4.36,0,6.55,0l6.58.11Z" style="fill:#ebebeb"></path><path d="M348.81,176.42l-13.12.28-6.67.11c-2.22.05-4.46,0-6.69.06h-.44v-.45l-.05-11.19v-.5h.5l13.24.06c4.41,0,8.83.12,13.24.17h.28v.27c0,1.9-.08,3.79-.13,5.66Zm0,0-.14-5.65c-.05-1.87-.11-3.71-.13-5.54l.27.27c-4.41.06-8.83.16-13.24.17l-13.24.06.5-.5-.05,11.19-.45-.44c2.18,0,4.36,0,6.55.05l6.57.11Z" style="fill:#ebebeb"></path><path d="M453.66,293.67l-13.13.27-6.66.12c-2.22,0-4.46,0-6.69.05h-.45v-.44l-.05-11.19V282h.5l13.24.06c4.41,0,8.83.11,13.24.16h.27v.27c0,1.89-.08,3.78-.13,5.65Zm0,0-.14-5.66c0-1.86-.12-3.7-.13-5.53l.27.27c-4.41.05-8.83.16-13.24.16l-13.24.06.5-.49-.06,11.19-.44-.45c2.18,0,4.36,0,6.54,0l6.58.12Z" style="fill:#ebebeb"></path><path d="M438.89,55.2l-13.13.28-6.66.11c-2.22,0-4.46,0-6.69.06H412V55.2l0-11.19v-.5h.51l13.24.06c4.41,0,8.82.12,13.24.17h.27V44c0,1.9-.09,3.79-.13,5.65Zm0,0-.14-5.65c-.05-1.87-.12-3.71-.14-5.54l.28.27c-4.42,0-8.83.16-13.24.17l-13.24.06.5-.5-.06,11.19-.44-.45c2.18,0,4.35,0,6.54.06l6.58.11Z" style="fill:#ebebeb"></path><path d="M453.66,69.31l-13.13.28-6.66.11c-2.22,0-4.46,0-6.69.06h-.45v-.45l-.05-11.19v-.5h.5l13.24.06c4.41,0,8.83.12,13.24.17h.27v.27c0,1.9-.08,3.79-.13,5.65Zm0,0-.14-5.65c0-1.87-.12-3.71-.13-5.54l.27.27c-4.41,0-8.83.16-13.24.17l-13.24.06.5-.5-.06,11.19-.44-.45c2.18,0,4.36,0,6.54.06l6.58.11Z" style="fill:#ebebeb"></path><path d="M72.82,55.2l-13.12.28L53,55.59c-2.23,0-4.47,0-6.7.06H45.9V55.2L45.84,44v-.5h.5l13.24.06c4.41,0,8.83.12,13.24.17h.28V44c0,1.9-.08,3.79-.13,5.65Zm0,0-.14-5.65c-.05-1.87-.11-3.71-.13-5.54l.27.27c-4.41,0-8.83.16-13.24.17l-13.24.06.5-.5L46.79,55.2l-.45-.45c2.18,0,4.36,0,6.55.06l6.58.11Z" style="fill:#ebebeb"></path><path d="M278.1,264.53,265,264.8l-6.66.12c-2.23,0-4.46,0-6.7.05h-.44v-.44l0-11.19v-.51h.5l13.24.06c4.42,0,8.83.11,13.25.16h.27v.27c0,1.89-.09,3.78-.13,5.65Zm0,0-.15-5.66c0-1.86-.11-3.7-.13-5.53l.28.27c-4.42,0-8.83.16-13.25.16l-13.24.06.5-.49-.05,11.19-.45-.45c2.19,0,4.36,0,6.55.05l6.58.12Z" style="fill:#ebebeb"></path><path d="M100.66,77.08a.21.21,0,0,0-.42,0c-.7,9.07-.46,18.22-.34,27.32s-.17,18.23.3,27.31a.25.25,0,0,0,.5,0c.47-9.08.18-18.22.3-27.31S101.36,86.15,100.66,77.08Z" style="fill:#c7c7c7"></path><path d="M105.24,139.16c0,5.46-3.11,7.39-4.79,7.39s-4.8-1.94-4.8-7.39,4.8-14.19,4.8-14.19C100.6,125.25,105.24,133.79,105.24,139.16Z" style="fill:#ebebeb"></path><path d="M116.51,78a.24.24,0,0,0-.48,0c-.78,11.65-.41,23.46-.34,35.13s0,23.43.3,35.14a.29.29,0,0,0,.57,0c.25-11.71.24-23.43.3-35.14S117.3,89.68,116.51,78Z" style="fill:#c7c7c7"></path><path d="M121.07,158.46c0,5.47-3.12,7.4-4.8,7.4s-4.79-1.94-4.79-7.4,4.79-14.19,4.79-14.19C116.43,144.56,121.07,153.1,121.07,158.46Z" style="fill:#dbdbdb"></path><path d="M133.65,66.4a.24.24,0,0,0-.47,0c-.34,18.52-.64,37.05.1,55.56a.14.14,0,0,0,.28,0C134.3,103.45,134,84.92,133.65,66.4Z" style="fill:#c7c7c7"></path><path d="M138.21,127.91c0,5.46-3.11,7.39-4.79,7.39s-4.79-1.93-4.79-7.39,4.79-14.19,4.79-14.19C133.57,114,138.21,122.54,138.21,127.91Z" style="fill:#ebebeb"></path><path d="M151,72.91a.13.13,0,0,0-.26,0c-.71,6.07-.44,12.35-.44,18.45s0,12.31,0,18.46c.07,12.29,0,24.6.26,36.9a.28.28,0,0,0,.56,0c.3-12.3.19-24.61.26-36.9,0-6,0-12,0-17.94C151.46,85.6,151.75,79.15,151,72.91Z" style="fill:#c7c7c7"></path><path d="M155.69,152c0,5.46-3.12,7.39-4.8,7.39s-4.79-1.93-4.79-7.39,4.79-14.19,4.79-14.19C151,138.06,155.69,146.6,155.69,152Z" style="fill:#dbdbdb"></path><path d="M167.35,74a.18.18,0,0,0-.36,0c-.79,10.83-.31,21.85-.29,32.7s-.42,21.88.34,32.71a.13.13,0,0,0,.26,0c.76-10.83.32-21.85.34-32.71S168.14,84.79,167.35,74Z" style="fill:#c7c7c7"></path><path d="M172,138.49c0,5.46-3.11,7.39-4.79,7.39s-4.79-1.93-4.79-7.39,4.79-14.19,4.79-14.19C167.32,124.58,172,133.12,172,138.49Z" style="fill:#ebebeb"></path><path d="M96.69,63.45S85.8,65.87,85.8,75.9s14.35,9,14.35,9,.87,8.64,11.94,11.76S131,91.12,131,91.12a10.75,10.75,0,0,0,8.78,3.81,9,9,0,0,0,8-5s6.4,2.77,12.63.17A13.67,13.67,0,0,0,168.12,82s8.65,1,10.21-6.92-8.13-10.38-8.13-10.38S170,51.76,161,48.06a23,23,0,0,0-20.23,1.55s-10.9-14.35-27.16-11.07S96.69,63.45,96.69,63.45Z" style="fill:#ebebeb"></path><path d="M149.23,65.15c0-.11-.16-.08-.17,0-.24,1.62-1,7.77-3.36,7.84-2.22.07-4-5.27-4.47-7.19a.08.08,0,0,0-.16,0c.1,2.51,1.59,9,5,8.37C149.08,73.72,149.57,67,149.23,65.15Z" style="fill:#fff"></path><path d="M114.9,65.15c0-.11.17-.08.18,0,.24,1.62,1,7.77,3.35,7.84,2.23.07,4-5.27,4.48-7.19,0-.1.16-.06.16,0-.1,2.51-1.59,9-5,8.37C115.05,73.72,114.57,67,114.9,65.15Z" style="fill:#fff"></path><path d="M127.69,69.37a10,10,0,0,0,2.09,1.41,5.52,5.52,0,0,0,2.25.58,4.75,4.75,0,0,0,2.24-.49,7.29,7.29,0,0,0,2-1.5,4.32,4.32,0,0,1-4.26,3,4.65,4.65,0,0,1-2.64-.92A4.94,4.94,0,0,1,127.69,69.37Z" style="fill:#fff"></path></g><g id="freepik--Floor--inject-5"><polygon points="41.45 371.34 93.59 371.09 145.73 371.01 250 370.84 354.27 371 406.41 371.09 458.55 371.34 406.41 371.58 354.27 371.67 250 371.84 145.73 371.67 93.59 371.58 41.45 371.34" style="fill:#263238"></polygon></g><g id="freepik--Shadow--inject-5"><ellipse cx="274.53" cy="433.33" rx="125.01" ry="10.58" style="fill:#ebebeb"></ellipse></g><g id="freepik--teddy-bear--inject-5"><path d="M450.37,371.63c6.66,2.75,9.47-6,9.27-12.37s-2.29-11.11-4.27-11.47C451.91,347.17,441.71,368,450.37,371.63Z" style="fill:#9934AA"></path><path d="M398.25,337.78A81.38,81.38,0,0,1,389.4,347c-7.78,7.13-17.79,14.43-20.73,11.27-4.43-4.73,12.7-30.29,16.14-33.09a7.7,7.7,0,0,1,9.49-.59C398.68,327.39,401.24,333.82,398.25,337.78Z" style="fill:#9934AA"></path><path d="M383.84,350a32.57,32.57,0,0,0,5.56-3c-7.78,7.13-17.79,14.43-20.73,11.27-4.43-4.73,12.7-30.29,16.14-33.09a7.7,7.7,0,0,1,9.49-.59A41.11,41.11,0,0,0,378,343c-.93,2.22-3.34,7.47,2,8C381.17,351.18,382.8,350.39,383.84,350Z" style="fill:#030402;opacity:0.1"></path><path d="M408.15,375.25c-3.55,2.57-42,15.4-50.1,11.88s-10.88-25.22-8.13-25.22,7.23,5.11,7.91,5.2c.39.06,6.78-3.65,12.95-6.87,4.34-2.26,8.57-4.29,10.54-4.6,16.62-2.65,26.27,10.22,27.42,16.54C409,373.65,408.82,374.76,408.15,375.25Z" style="fill:#9934AA"></path><path d="M408.15,375.25c-3.55,2.57-42,15.4-50.1,11.88s-10.88-25.22-8.13-25.22,7.23,5.11,7.91,5.2c.39.06,6.78-3.65,12.95-6.87a29.7,29.7,0,0,0-7.86,8.61c-4.84,8.9,7.95,13.07,14.33,13.17,6.12.12,12-1.77,17.71-3.84a124.13,124.13,0,0,0,13.78-6C409,373.65,408.82,374.76,408.15,375.25Z" style="fill:#030402;opacity:0.1"></path><path d="M452.05,371.55a5.82,5.82,0,0,1-.64,1c-3.65,4.81-18,13-30.41,14.85-13.37,2-37.78-1.57-42.18-11.09s8.55-54,9.53-56.35l48.49-3.69.36.9C439.83,323.7,455.71,363.65,452.05,371.55Z" style="fill:#9934AA"></path><path d="M451.41,372.58c-3.65,4.81-18,13-30.41,14.85-13.37,2-37.78-1.57-42.18-11.09s8.55-54,9.53-56.35l48.49-3.69.36.9c-12.74,5.05-25.45,11.53-35.24,21.27s-16.56,27-5.38,38.37c9.69,9.88,26.34,8.12,38.18,4A78.77,78.77,0,0,0,451.41,372.58Z" style="fill:#030402;opacity:0.1"></path><path d="M448.83,376.11c-.88,1.29-5.06,5-10.69,9.4-12.2,9.6-31.19,22.66-38,22.22-10-.64-21.12-22.66-18.21-23.71s9.62,2.69,10.38,2.53c.55-.12,8.64-9.81,14.87-16.11a31.84,31.84,0,0,1,5.73-5C433.42,354.22,451.62,372,448.83,376.11Z" style="fill:#9934AA"></path><path d="M438.14,385.51c-12.2,9.6-31.19,22.66-38,22.22-10-.64-21.12-22.66-18.21-23.71s9.62,2.69,10.38,2.53c.55-.12,8.64-9.81,14.87-16.11-3.7,4.59-7.49,10.17-8.28,15.95-1.36,10,11,11.09,17.9,9.68C424.76,394.44,431.58,390.21,438.14,385.51Z" style="fill:#030402;opacity:0.1"></path><path d="M445.16,368.86c-6.93,2.38-25.45-27.14-26.76-32-1.37-5.07,1.12-8.74,4.76-10.67,4.92-2.58,11.93-2,14.47,2.6,2.81,5.1,7.91,19,9.45,29C448,363.53,447.69,368,445.16,368.86Z" style="fill:#9934AA"></path><path d="M445.16,368.86c-6.93,2.38-25.45-27.14-26.76-32-1.37-5.07,1.12-8.74,4.76-10.67-1.73,3.21,1.14,9.85,2.28,12.15a68.92,68.92,0,0,0,6.68,10.18,54.09,54.09,0,0,0,7.26,8.43c1,.92,3.58,3.36,4.95,3.43,1.7.08,2.45-1.1,2.75-2.59C448,363.53,447.69,368,445.16,368.86Z" style="fill:#030402;opacity:0.1"></path><path d="M387.34,320.07c-2.93-.49-2.69,5.16-2.12,6.11s9.69,7.45,25.74,6.22c17.61-1.33,28.45-8.31,29.32-9.58s-.94-6.71-2.86-6.56S416,324.84,387.34,320.07Z" style="fill:#9934AA"></path><path d="M387.34,320.07c-2.93-.49-2.69,5.16-2.12,6.11s9.69,7.45,25.74,6.22c17.61-1.33,28.45-8.31,29.32-9.58s-.94-6.71-2.86-6.56S416,324.84,387.34,320.07Z" style="fill:#fff;opacity:0.6000000000000001"></path><path d="M396,256.18l-13.53,9.7a14.13,14.13,0,0,1-2.25-.14,14.77,14.77,0,0,1-12.28-9.58c-3.86-10.24,1.89-23.06,17-20.47,7.94,1.36,10.34,8.49,11,14A31.74,31.74,0,0,1,396,256.18Z" style="fill:#9934AA"></path><path d="M383.42,261.33s-6.39.3-8.7-5.82,1.13-13.8,10.16-12.25c7.91,1.36,6.63,12.26,6.63,12.26Z" style="fill:#fff;opacity:0.6000000000000001"></path><path d="M462.55,253.73c.06,5.36-2.81,8.77-6.3,10.94a29.36,29.36,0,0,1-11.84,3.7l-12-11.52s-2.44-10.41,6.91-16.07c5.55-3.36,12.61-3.56,17.48,0C460.15,243.26,462.46,247.5,462.55,253.73Z" style="fill:#9934AA"></path><path d="M437.06,257s-1.46-6.23,4.14-9.62,13.77-1.4,13.89,7.75c.11,8-10.85,8.76-10.85,8.76Z" style="fill:#fff;opacity:0.6000000000000001"></path><path d="M444.16,258.83c2.53,6.07,7.31,7.15,12.09,5.84a29.36,29.36,0,0,1-11.84,3.7l-12-11.52s-2.44-10.41,6.91-16.07c5.55-3.36,12.61-3.56,17.48,0C447.75,240.56,440.49,250,444.16,258.83Z" style="fill:#030402;opacity:0.1"></path><path d="M450.14,301.08a29.46,29.46,0,0,1-1.53,4.68,26.69,26.69,0,0,1-2.73,4.88c-3.7,5.2-9.2,9-15.48,11.66a62.35,62.35,0,0,1-27.28,4.31c-11.19-.74-20.45-4.58-26.61-10.3A26,26,0,0,1,369.57,306c-2.27-6.33-1-12.27,1.22-18.12,1.7-4.49,3.95-8.93,5.58-13.44a65.76,65.76,0,0,1,3.85-8.72,48.37,48.37,0,0,1,2.69-4.42,36.45,36.45,0,0,1,8.63-9,31,31,0,0,1,4.37-2.67,34.56,34.56,0,0,1,14.21-3.59,58.61,58.61,0,0,1,6.37,0c13.36.77,21.74,6.12,26.21,11.94C447.35,264.1,454,285.29,450.14,301.08Z" style="fill:#9934AA"></path><g style="opacity:0.4"><path d="M384.41,302.28a15.15,15.15,0,0,1-7.89,14,25.91,25.91,0,0,1-7-10.29c-2.26-6.34-1-12.27,1.23-18.12A15.17,15.17,0,0,1,384.41,302.28Z" style="fill:#fff;opacity:0.6000000000000001"></path><path d="M450.14,301.08a29.8,29.8,0,0,1-1.53,4.68c-3.29,7.75-10.11,13.16-18.21,16.54a16.44,16.44,0,1,1,19.74-21.22Z" style="fill:#fff;opacity:0.6000000000000001"></path></g><path d="M445.88,310.64c-3.7,5.2-9.2,9-15.48,11.66a62.35,62.35,0,0,1-27.28,4.31c-11.19-.74-20.45-4.58-26.61-10.3A26,26,0,0,1,369.57,306c-2.27-6.33-1-12.27,1.22-18.12,1.7-4.49,3.95-8.93,5.58-13.44a65.76,65.76,0,0,1,3.85-8.72,14.77,14.77,0,0,1-12.28-9.58c-3.86-10.24,1.89-23.06,17-20.47,7.94,1.36,10.34,8.49,11,14a34.56,34.56,0,0,1,14.21-3.59,58.61,58.61,0,0,1,6.37,0c-24.24,5.19-33.56,38.82-34.65,45.84a27.54,27.54,0,0,0,4.68,20.34C395.78,325,415.66,324,429,319.51A63.05,63.05,0,0,0,445.88,310.64Z" style="fill:#030402;opacity:0.1"></path><path d="M395.49,283.24c-3.88,1.44-10.83,15.48-8.27,19.24s23.8,6.26,27.85,2.68-1.57-18.22-4.06-20.1S399.1,281.9,395.49,283.24Z" style="fill:#fff;opacity:0.6000000000000001"></path><path d="M388.54,281.72c-1.62-.21-3.22,1.27-3.49,3.23s.89,3.81,2.51,4,3.23-1.26,3.49-3.22S390.17,281.94,388.54,281.72Z" style="fill:#263238"></path><path d="M390.76,283.85c0-.06-.15,0-.13,0,.59,2.87-.87,6.1-4.14,6.08-.05,0-.07.07,0,.08C390,290.75,392.11,286.89,390.76,283.85Z" style="fill:#263238"></path><path d="M420,284.8c1.64.11,2.91,1.89,2.78,3.86s-1.63,3.56-3.27,3.45-2.91-1.88-2.77-3.86S418.35,284.69,420,284.8Z" style="fill:#263238"></path><path d="M417.39,286.44c0-.05.15,0,.12.06-1.16,2.7-.38,6.16,2.84,6.79a0,0,0,0,1,0,.08C416.7,293.34,415.45,289.15,417.39,286.44Z" style="fill:#263238"></path><path d="M391.63,274.62c-.13-.89-1.19-1-1.91-.95a7.74,7.74,0,0,0-2.71.77,1.06,1.06,0,0,0,.27,2,7.41,7.41,0,0,0,2.65-.26C390.68,276,391.77,275.59,391.63,274.62Z" style="fill:#263238"></path><path d="M419.48,277.5c.31-.84,1.38-.77,2.06-.54a7.26,7.26,0,0,1,2.5,1.29,1.06,1.06,0,0,1-.66,1.92,7.49,7.49,0,0,1-2.55-.79C420.13,279.06,419.15,278.43,419.48,277.5Z" style="fill:#263238"></path><path d="M400,290.14c-1.79-.24-6-4-5.22-5.8s10.2-.52,11.32,1S401,290.27,400,290.14Z" style="fill:#263238"></path><path d="M433.22,296.06a4.75,4.75,0,1,1-4.25-5.2A4.76,4.76,0,0,1,433.22,296.06Z" style="fill:#ff99ba"></path><path d="M382.16,291.09a4.75,4.75,0,1,1-4.24-5.21A4.75,4.75,0,0,1,382.16,291.09Z" style="fill:#ff99ba"></path></g><g id="freepik--Crib--inject-5"><rect x="42.43" y="157.58" width="10.13" height="213.7" style="fill:#ebebeb"></rect><path d="M52.82,152.24a5.33,5.33,0,1,1-5.33-5.33A5.33,5.33,0,0,1,52.82,152.24Z" style="fill:#ebebeb"></path><rect x="313.27" y="157.58" width="10.13" height="213.7" style="fill:#ebebeb"></rect><path d="M323.67,152.24a5.33,5.33,0,1,1-5.33-5.33A5.34,5.34,0,0,1,323.67,152.24Z" style="fill:#ebebeb"></path><rect x="52.56" y="300.84" width="260.72" height="31.64" style="fill:#ebebeb"></rect><rect x="52.56" y="300.85" width="9.95" height="31.63" style="fill:#dbdbdb"></rect><rect x="303.32" y="300.85" width="9.95" height="31.63" style="fill:#dbdbdb"></rect><path d="M177.48,327.71H75.28V305.62h102.2Zm-101.2-1h100.2V306.62H76.28Z" style="fill:#dbdbdb"></path><path d="M138.73,317.17H114v-4.56h24.7Zm-23.7-1h22.7v-2.56H115Z" style="fill:#dbdbdb"></path><path d="M290.54,327.71H188.34V305.62h102.2Zm-101.2-1h100.2V306.62H189.34Z" style="fill:#dbdbdb"></path><path d="M251.79,317.17h-24.7v-4.56h24.7Zm-23.7-1h22.7v-2.56h-22.7Z" style="fill:#dbdbdb"></path><rect x="52.56" y="291.25" width="260.72" height="9.6" style="fill:#dbdbdb"></rect><rect x="52.56" y="266.36" width="260.72" height="24.89" style="fill:#9934AA"></rect><rect x="52.56" y="266.36" width="260.72" height="24.89" style="fill:#fff;opacity:0.6000000000000001"></rect><rect x="52.56" y="169.66" width="260.45" height="8.53" style="fill:#ebebeb"></rect><rect x="56.63" y="178.2" width="3.45" height="122.65" style="fill:#ebebeb"></rect><rect x="73.22" y="178.2" width="3.45" height="122.65" style="fill:#ebebeb"></rect><rect x="89.81" y="178.2" width="3.45" height="122.65" style="fill:#ebebeb"></rect><rect x="106.4" y="178.2" width="3.45" height="122.65" style="fill:#ebebeb"></rect><rect x="122.99" y="178.2" width="3.45" height="122.65" style="fill:#ebebeb"></rect><rect x="139.58" y="178.2" width="3.45" height="122.65" style="fill:#ebebeb"></rect><rect x="156.17" y="178.2" width="3.45" height="122.65" style="fill:#ebebeb"></rect><rect x="172.76" y="178.2" width="3.45" height="122.65" style="fill:#ebebeb"></rect><rect x="189.35" y="178.2" width="3.45" height="122.65" style="fill:#ebebeb"></rect><rect x="205.94" y="178.2" width="3.45" height="122.65" style="fill:#ebebeb"></rect><rect x="222.53" y="178.2" width="3.45" height="122.65" style="fill:#ebebeb"></rect><rect x="239.13" y="178.2" width="3.45" height="122.65" style="fill:#ebebeb"></rect><rect x="255.72" y="178.2" width="3.45" height="122.65" style="fill:#ebebeb"></rect><rect x="272.31" y="178.2" width="3.45" height="122.65" style="fill:#ebebeb"></rect><rect x="288.9" y="178.2" width="3.45" height="122.65" style="fill:#ebebeb"></rect><rect x="305.49" y="178.2" width="3.45" height="122.65" style="fill:#ebebeb"></rect><rect x="52.56" y="169.66" width="260.45" height="8.53" style="fill:#ebebeb"></rect></g><g id="freepik--rubber-duck--inject-5"><path d="M52.7,430.54A18.72,18.72,0,0,0,56.24,440a26.4,26.4,0,0,0,13.47,9.59c6.44,1.82,24.25,2,32.06-.12s13.31-7.72,12.72-17.55-9.93-20-9.93-20a87.12,87.12,0,0,1-18.68.26,20.11,20.11,0,0,0-5.11.16c-7.41,1.14-13,5.86-15.33,6-2.8.16-6.88-4.32-8.1-4.46S51.88,420.09,52.7,430.54Z" style="fill:#9934AA"></path><path d="M52.7,430.54A18.72,18.72,0,0,0,56.24,440a26.4,26.4,0,0,0,13.47,9.59c6.44,1.82,24.25,2,32.06-.12s13.31-7.72,12.72-17.55-9.93-20-9.93-20a87.12,87.12,0,0,1-18.68.26,20.11,20.11,0,0,0-5.11.16c-7.41,1.14-13,5.86-15.33,6-2.8.16-6.88-4.32-8.1-4.46S51.88,420.09,52.7,430.54Z" style="fill:#fff;opacity:0.6000000000000001"></path><path d="M59.89,439.15c-.19-.12,3.21-12.49,14.08-19,.19-.12.19.15,0,.3-2.87,2.47-10.63,11.49-12.65,17.94,13.55,3.94,28.31-6.14,32.06-11.64.09-.12.27,0,.2.15C84,444.38,61.75,441.52,59.89,439.15Z" style="fill:#9934AA"></path><path d="M56.24,440a26.4,26.4,0,0,0,13.47,9.59c6.44,1.82,24.25,2,32.06-.12s13.31-7.72,12.72-17.55-9.93-20-9.93-20a87.12,87.12,0,0,1-18.68.26,20.11,20.11,0,0,0-5.11.16c6.18,2.53,12.24,6.77,16,12.33,7.36,11-5.79,17.25-14.74,18.83A42.37,42.37,0,0,1,56.24,440Z" style="fill:#030402;opacity:0.1"></path><path d="M108.18,400.79c.88,3.31,5.48,8,5.89,7.88l.47-.1a14.46,14.46,0,0,0,8.2-5.8c3.53-5,2-11.68.43-12.09s-3,2.42-5.7,3-4.14-.7-5.78-1.78h0C111.47,392.19,107.33,397.57,108.18,400.79Z" style="fill:#9934AA"></path><path d="M80.78,412.79a17.4,17.4,0,0,0,16.61,8.54c9.4-.56,15.26-6.06,17.15-12.76a17.9,17.9,0,0,0,.63-5.93,21.61,21.61,0,0,0-3.48-10.73h0a17.92,17.92,0,0,0-16.53-8.08,21.6,21.6,0,0,0-3.11.42C82.42,386.32,77.9,395.11,78,403A20,20,0,0,0,80.78,412.79Z" style="fill:#9934AA"></path><path d="M80.78,412.79a17.4,17.4,0,0,0,16.61,8.54c9.4-.56,15.26-6.06,17.15-12.76a17.9,17.9,0,0,0,.63-5.93,21.61,21.61,0,0,0-3.48-10.73h0a17.92,17.92,0,0,0-16.53-8.08,21.6,21.6,0,0,0-3.11.42C82.42,386.32,77.9,395.11,78,403A20,20,0,0,0,80.78,412.79Z" style="fill:#fff;opacity:0.6000000000000001"></path><path d="M104.22,401.87c3.58-.69,5,5.09,1.15,5.83S100.52,402.57,104.22,401.87Z" style="fill:#263238"></path><path d="M80.78,412.79a17.4,17.4,0,0,0,16.61,8.54c9.4-.56,15.26-6.06,17.15-12.76a14.46,14.46,0,0,0,8.2-5.8c3.53-5,2-11.68.43-12.09s-3,2.42-5.7,3-4.14-.7-5.78-1.78a17.92,17.92,0,0,0-16.53-8.08,21.6,21.6,0,0,0-3.11.42c11.69,3.23,21.65,18.39,9.47,27.28A20.07,20.07,0,0,1,85,414.45,19.41,19.41,0,0,1,80.78,412.79Z" style="fill:#030402;opacity:0.1"></path></g><g id="freepik--Character--inject-5"><path d="M314.31,361.62c10.68,1.64,31.41,44.75,20.27,50-9,4.25-38.43-18.15-37.55-33.09C297.62,368.63,306.82,360.47,314.31,361.62Z" style="fill: rgb(247, 169, 160);"></path><path d="M230.88,357.19c-.63-16.86,8.23-49.42,26-55s37.46,4.44,40.72,27.53c2.54,18-4.23,36.61-4.23,36.61s15-5.91,19.54-4.93c9,1.95,18.35,19.31,9.35,29.75-6.43,7.45-50.83,41.35-75.65,16.94C232.45,394.17,231.65,378.12,230.88,357.19Z" style="fill: rgb(247, 169, 160);"></path><g style="opacity:0.1"><path d="M314.31,361.62c10.68,1.64,31.41,44.75,20.27,50-9,4.25-38.43-18.15-37.55-33.09C297.62,368.63,306.82,360.47,314.31,361.62Z"></path><path d="M230.88,357.19c-.63-16.86,8.23-49.42,26-55s37.46,4.44,40.72,27.53c2.54,18-4.23,36.61-4.23,36.61s15-5.91,19.54-4.93c9,1.95,18.35,19.31,9.35,29.75-6.43,7.45-50.83,41.35-75.65,16.94C232.45,394.17,231.65,378.12,230.88,357.19Z"></path></g><path d="M293.91,363.51a44.07,44.07,0,0,1-6.38,13.31c-1.36,1.95-2.82,3.81-4.36,5.62A40.93,40.93,0,0,1,277.8,388c-.22.17,0,.5.27.34,1.05-.78,2.2-1.42,3.22-2.26a38.1,38.1,0,0,0,2.87-2.67,32,32,0,0,0,4.57-5.92,44.41,44.41,0,0,0,5.39-13.92C294.14,363.45,294,363.39,293.91,363.51Z" style="fill:#263238"></path><path d="M316.5,390.78a33.19,33.19,0,0,1-6.6,8.74c-1.25,1.17-2.54,2.25-3.88,3.28a25.33,25.33,0,0,1-4.52,3c-.18.08-.07.4.11.33.83-.35,1.7-.57,2.52-1a23.31,23.31,0,0,0,2.36-1.37,21.4,21.4,0,0,0,4.06-3.47,33.94,33.94,0,0,0,6.07-9.45C316.66,390.79,316.54,390.7,316.5,390.78Z" style="fill:#263238"></path><path d="M143.25,366.7c5.62,1.35,37.31,8.05,57.11,2.39a61,61,0,0,0,36.17-27.43c13-21.27.73-37.3-12.4-30.32-15.59,8.3-30,18.65-40.06,22-12.3,4.08-33.64,5.2-37,5.83C140,340.5,136.25,365,143.25,366.7Z" style="fill: rgb(247, 169, 160);"></path><path d="M149.08,339.23c-1.91-2.73-9.52-7.38-10.66-9.65s-2.69-8.63-6.06-6.95.07,10.79.88,12.87-20.59-5.05-22.37,0,13.31,8.45,13,9.48-16.42-.88-17.46,3.6,16.39,4.91,16.36,5.26-12.41-4.08-14.09-.35,15.87,7.06,15.81,7.85-10.34,2.2-9.59,6.21,16.23-.1,17.65-.26,12.41.58,14.12-1.13S150.44,341.18,149.08,339.23Z" style="fill: rgb(247, 169, 160);"></path><g style="opacity:0.1"><path d="M143.25,366.7c5.62,1.35,37.31,8.05,57.11,2.39a61,61,0,0,0,36.17-27.43c13-21.27.73-37.3-12.4-30.32-15.59,8.3-30,18.65-40.06,22-12.3,4.08-33.64,5.2-37,5.83C140,340.5,136.25,365,143.25,366.7Z"></path><path d="M149.08,339.23c-1.91-2.73-9.52-7.38-10.66-9.65s-2.69-8.63-6.06-6.95.07,10.79.88,12.87-20.59-5.05-22.37,0,13.31,8.45,13,9.48-16.42-.88-17.46,3.6,16.39,4.91,16.36,5.26-12.41-4.08-14.09-.35,15.87,7.06,15.81,7.85-10.34,2.2-9.59,6.21,16.23-.1,17.65-.26,12.41.58,14.12-1.13S150.44,341.18,149.08,339.23Z"></path></g><path d="M135.43,340.1a43.08,43.08,0,0,0-3.37,10.31,39.8,39.8,0,0,0-.19,10.9c0,.28.46.28.43,0a46.44,46.44,0,0,1,.61-10.72,42.71,42.71,0,0,1,2.84-10.35C135.83,340.06,135.52,339.92,135.43,340.1Z" style="fill:#263238"></path><path d="M120.8,353.53c-1.11-.18-2.21-.38-3.31-.6s-2-.35-3.09-.46c-1.22-.14-2-.18-3.22-.42-.35-.08-.42,0-.09.15a51.77,51.77,0,0,0,6.17,1.49c1.08.14,2.15.26,3.23.36a31.28,31.28,0,0,0,3.48.23c.14,0,.19-.23,0-.26C123,353.8,121.86,353.71,120.8,353.53Z" style="fill:#263238"></path><path d="M274.91,388.38c-1.1-.71,5.32-22.41,5.84-44.83.63-27.2-4.85-43.72-3.89-45.22,2-3.06,6.21-.26,6.89-.31s27-8.33,44.58-.69,29,32.17,25.44,52.11-19.33,54-74.5,38.55C278.94,387.9,277.35,390,274.91,388.38Z" style="fill:#9934AA"></path><g style="opacity:0.6000000000000001"><path d="M274.91,388.38c-1.1-.71,5.32-22.41,5.84-44.83.63-27.2-4.85-43.72-3.89-45.22,2-3.06,6.21-.26,6.89-.31s27-8.33,44.58-.69,29,32.17,25.44,52.11-19.33,54-74.5,38.55C278.94,387.9,277.35,390,274.91,388.38Z" style="fill:#fff"></path></g><path d="M283.88,302a75.67,75.67,0,0,1,3.34,10.14,104.29,104.29,0,0,1,2,10.51,110.85,110.85,0,0,1,1,21.39,112.41,112.41,0,0,1-3,21.21,104.84,104.84,0,0,1-2.92,10.29c-.5,1.71-1.25,3.34-1.89,5s-1.33,3.3-2,4.93c.49-1.71,1-3.42,1.52-5.11s1.1-3.36,1.45-5.11c.82-3.44,1.77-6.84,2.34-10.33l.48-2.6c.16-.87.37-1.72.46-2.6l.7-5.24c.28-1.74.35-3.51.52-5.26s.33-3.51.34-5.27l.18-5.28-.08-5.28c-.11-3.52-.33-7-.69-10.55A119.63,119.63,0,0,0,283.88,302Z" style="fill:#9934AA"></path><path d="M372.65,380.69c10.57,2.25,28.8,46.47,17.38,51.1-9.19,3.73-37.33-20.32-35.6-35.18C355.59,386.74,365.24,379.11,372.65,380.69Z" style="fill: rgb(247, 169, 160);"></path><path d="M289.6,371.5c.35-16.86,11-48.87,29.08-53.43s37.15,6.57,39.09,29.81c1.5,18.12-6.32,36.31-6.32,36.31s15.31-5,19.8-3.8c8.89,2.46,17.21,20.33,7.63,30.23-6.84,7.07-53.11,38.38-76.49,12.59C289.06,408.51,289.18,392.44,289.6,371.5Z" style="fill: rgb(247, 169, 160);"></path><path d="M352.18,381.42a44.5,44.5,0,0,1-7.13,12.92c-1.48,1.87-3,3.64-4.68,5.36a40.81,40.81,0,0,1-5.68,5.24.22.22,0,0,0,.25.36c1.1-.72,2.28-1.29,3.35-2.07a38,38,0,0,0,3-2.5,31.77,31.77,0,0,0,4.9-5.65,44.29,44.29,0,0,0,6.18-13.6C352.41,381.37,352.22,381.3,352.18,381.42Z" style="fill:#263238"></path><path d="M373.17,409.93a33.08,33.08,0,0,1-7.09,8.35c-1.31,1.1-2.67,2.11-4.06,3.06a25.8,25.8,0,0,1-4.69,2.73c-.18.07-.09.4.1.33.85-.3,1.72-.46,2.57-.82a23.07,23.07,0,0,0,2.43-1.23,21.85,21.85,0,0,0,4.26-3.23,34.57,34.57,0,0,0,6.6-9.09C373.33,410,373.22,409.85,373.17,409.93Z" style="fill:#263238"></path><path d="M278.67,299.88c12.19,31.37-.4,84.56-3.79,86.64,0,0-56.93,3.37-82.68-54.19-1.38-3.09,39.71-27.59,49.88-32.78,9.52-4.85,25.91-1.69,34.1-.71C277.57,299,278.46,299.32,278.67,299.88Z" style="fill: rgb(247, 169, 160);"></path><g style="opacity:0.1"><path d="M242.27,340.79a2.14,2.14,0,0,0-2.93.82A2.51,2.51,0,0,0,240,345a1.7,1.7,0,0,0,2.33-.56,2.35,2.35,0,0,0,.57-.45A2.21,2.21,0,0,0,242.27,340.79Z"></path><path d="M218.06,356.61a2.14,2.14,0,0,0-2.93.82,2.5,2.5,0,0,0,.67,3.39,1.69,1.69,0,0,0,2.34-.56,2.31,2.31,0,0,0,.56-.45A2.2,2.2,0,0,0,218.06,356.61Z"></path><path d="M251.2,376.15c-.14,0-.31.14-.22.3a6.53,6.53,0,0,0,.62.77c.12.15.44.6.28.82s-.66,0-.84-.1a4.45,4.45,0,0,1-1.59-2.63.18.18,0,0,0-.35.05c.12,1.36.94,4.45,2.9,4a1.44,1.44,0,0,0,1-1.68A2,2,0,0,0,251.2,376.15Z"></path></g><path d="M263,424.05c1.8-5.5,16.35-36,12.3-56.23-4.31-21.49-11.5-38.52-18.86-43.88-20.15-14.69-37,5-33.89,19.57,3.87,18.29,11.54,25.58,13.84,35.92.26,1.2-2.93,27.53-.53,38.6C237.35,425.1,260.71,430.89,263,424.05Z" style="fill: rgb(247, 169, 160);"></path><path d="M235.67,413.71c-2.73.81-6.7,4.68-9,5.1s-8.91,2.48-7.3,4.64,10.71,1.16,12.78.92-5.34,11.47-.37,13.07,8.6-6.84,9.61-6.52-1.13,9.5,3.3,10.61,5.13-9,5.48-9-4.26,6.8-.58,8.2,7.26-8.49,8-8.37,2,6.29,6,6.3.16-9.5,0-10.35.78-7.19-.9-8.38S237.62,413.13,235.67,413.71Z" style="fill: rgb(247, 169, 160);"></path><path d="M235.54,391.15a29.94,29.94,0,0,1,.54-11.84c.22-1,.53-1.92.82-2.87a29.2,29.2,0,0,1,1.13-2.77,24.14,24.14,0,0,1,3.13-5.06,51.15,51.15,0,0,0-2.41,5.36,42.06,42.06,0,0,0-1.7,5.57,50.57,50.57,0,0,0-1.05,5.75A56.69,56.69,0,0,0,235.54,391.15Z" style="fill:#263238"></path><path d="M236.34,379.43c-1.37-2.37-2.57-4.81-3.7-7.27s-2.2-5-3.23-7.46-2-5-2.9-7.59-1.78-5.11-2.55-7.74a58.8,58.8,0,0,1,4,7.14c1.2,2.44,2.28,4.93,3.31,7.44s2,5.05,2.82,7.63A78.28,78.28,0,0,1,236.34,379.43Z" style="fill:#263238"></path><path d="M223.1,353.41a14.41,14.41,0,0,1,3,2.57,14.1,14.1,0,0,1,2.28,3.24,15.54,15.54,0,0,1-5.3-5.81Z" style="fill:#263238"></path><path d="M265.84,337.32a189,189,0,0,1,6.89,19.29,98.58,98.58,0,0,1,2.46,10c.15.86.26,1.72.39,2.58s.17,1.77.17,2.64,0,1.75,0,2.61-.06,1.72-.12,2.58a141.78,141.78,0,0,1-3,20.33c-.76,3.34-1.64,6.65-2.69,9.92l-.84,2.42-.94,2.4c-.34.79-.7,1.56-1.05,2.34s-.83,1.5-1.23,2.25A57.18,57.18,0,0,0,269,407c.82-3.3,1.48-6.62,2.1-10a196,196,0,0,0,2.54-20.15c.07-.84.12-1.68.14-2.52s.05-1.67,0-2.5-.09-1.64-.13-2.46l-.34-2.48c-.51-3.32-1.3-6.62-2.1-9.92C269.56,350.43,267.73,343.87,265.84,337.32Z" style="fill:#263238"></path><path d="M268.48,339.57a15.26,15.26,0,0,1,1.1,4.32,13.64,13.64,0,0,1-.08,4.46,23.79,23.79,0,0,1-.91-4.34A20.53,20.53,0,0,1,268.48,339.57Z" style="fill:#263238"></path><path d="M258.64,417.2a32.92,32.92,0,0,0-8.1-3.42,32.22,32.22,0,0,0-8.95-.77c-.23,0-.28.38-.05.37a36.76,36.76,0,0,1,8.76,1.11,32.83,32.83,0,0,1,8.2,3C258.64,417.53,258.78,417.28,258.64,417.2Z" style="fill:#263238"></path><path d="M241.6,248.8a9.71,9.71,0,0,0,16.19-6.88c3.19,2.36,7.4,3.13,10.88.55s4.15-7.33,2.13-11.14c0,0-.06,0-.05,0,1.46,3.66.88,8.1-2.48,10.52-2.87,2.07-6,1.72-8.73.25a10.77,10.77,0,0,0,8.32-2,8.33,8.33,0,0,0,2.77-8.77c3.6-1.05,7.09-3.41,8.41-7.06a8.33,8.33,0,0,0-2-8.88,9.29,9.29,0,0,0-.84-17,7.79,7.79,0,0,0,.14-13.12,5.27,5.27,0,0,0,1.41-5.5c-.68-2.26-2.61-3.8-4.64-4.88a6.29,6.29,0,0,0-1.36-5.86,5.69,5.69,0,0,0-7.33-.77c-1.65-3.36-3.92-6.79-7.51-8.24-2.95-1.19-6.63-.87-8.88,1.49a11.27,11.27,0,0,0-16.71-2.33,7.94,7.94,0,0,0-7.81-1.27,11.75,11.75,0,0,0-4.78,3,6,6,0,0,0-6.93.1,7.86,7.86,0,0,0-3,6,4.5,4.5,0,0,1-1.53,1.29,10.32,10.32,0,0,0-5.5,8,7,7,0,0,0-5.32,9.11,7.91,7.91,0,0,0-3.21,10.63,11.49,11.49,0,0,0-5.14,8.09c-.33,2.55.4,5.53,2.72,6.81-1.59,1.26-1.38,3.77-.25,5.37a10.27,10.27,0,0,0,1.52,1.64c.65.59,1.65,1.16,2.06,2s.18,1.87.22,2.75a9.31,9.31,0,0,0,.3,1.89,10.47,10.47,0,0,0,10.69,7.56c.19,3.41,3.11,5.74,6.15,6.88a17.14,17.14,0,0,0,3.06.77,4.59,4.59,0,0,1,2.55,1.1c.44.43.79,1,1.24,1.39C220,243.8,222,244,224,243.91,224.82,253,235.84,254.87,241.6,248.8Zm-30.15-86.43a6.25,6.25,0,0,1,7.13-1.23l-.2.25s-.85-.13-1.27-.14a7.72,7.72,0,0,0-2.29.27,7.9,7.9,0,0,0-5.19,4.29l-.13.23A7.52,7.52,0,0,1,211.45,162.37Zm59.78,8.69a6,6,0,0,0-6.52-2.31l-.09-.18c2.35-1.07,4.79-1.4,6.8.81a5.22,5.22,0,0,1,1.06,5.14h0A6.67,6.67,0,0,0,271.23,171.06ZM224.38,243.9h.09a10.88,10.88,0,0,0,13.7,6.49C232.39,252.81,226,251.57,224.38,243.9Z" style="fill:#263238"></path><path d="M253.42,292.24c-7.56,21.9-26.74,32-37.95,35.5-17.36,5.45-66,11.72-79.92-18.88-3.23-7.09-4.87-17.68-5.24-29.11-.72-21.89,3.22-46.87,9.57-56.35,13.48-20.11,50.5-32.64,82.65-19.56C248.41,214.38,261,270.32,253.42,292.24Z" style="fill: rgb(247, 169, 160);"></path><path d="M197.65,258.25a39.11,39.11,0,0,1-4.09-1.21c-1.56-.48-2.86-.7-3.94-2a2.2,2.2,0,0,1,.22-2.67c1.48-1.46,3.54-1.35,5.45-.85a8,8,0,0,1,4.78,3.22C201.29,256.39,199.53,258.62,197.65,258.25Z" style="fill:#263238"></path><path d="M152.9,258.13A40.93,40.93,0,0,0,157,257c1.56-.45,2.84-.66,3.93-2a2.18,2.18,0,0,0-.18-2.65c-1.45-1.47-3.5-1.38-5.4-.91a8,8,0,0,0-4.78,3.13C149.31,256.24,151,258.48,152.9,258.13Z" style="fill:#263238"></path><path d="M183.24,292.38a13.25,13.25,0,0,1,.52,1.78c.56,2.4.92,6.62-2.71,8.16a6.77,6.77,0,0,1-4.35.22c-3.94-.94-7.63-5.07-7.63-5.07C177.52,298.85,183.24,292.38,183.24,292.38Z" style="fill:#263238"></path><path d="M183.76,294.16c.56,2.4.92,6.62-2.71,8.16a6.77,6.77,0,0,1-4.35.22,10.13,10.13,0,0,1,2.75-5.62A10.53,10.53,0,0,1,183.76,294.16Z" style="fill:#ff99ba"></path><path d="M163.59,263.3c-.78,9-.2,5.8-1.37,14.78-2,.24-11,.74-10.31,1.51,2.49,2.77,9.84,7.45,9.81,7.52-.94,2.47-4.93,5.23-4.72,5.42,11.6,10.84,22.48,4.12,26.11.3.73-.77.42-.74,0-.4-3.7,2.78-14.74,7.23-22.93-.19a12.89,12.89,0,0,0,3.34-5.3c.08-.25-5.7-4.23-8-6.43,2.73-.26,6.09-.34,8.12-.51.47,0,1.6-7.13.78-16.73A.41.41,0,0,0,163.59,263.3Z" style="fill:#263238"></path><path d="M192.39,265.33c7.35-.21,7.22,14.52.41,14.71S186.22,265.5,192.39,265.33Z" style="fill:#263238"></path><path d="M194.73,265.89c1.18.59,2.4,1.74,3.74,1.73,1.55,0,2.58-1.45,3.45-2.83.09-.14.21,0,.23.12.29,2.42-.38,5-2.94,5.63-2.33.58-4.25-1.38-5.11-3.75C193.94,266.35,194.26,265.64,194.73,265.89Z" style="fill:#263238"></path><path d="M157.88,265.59c-6.41-.49-7,13.69-1.09,14.15S163.24,266,157.88,265.59Z" style="fill:#263238"></path><path d="M156.09,265.89c-1.18.59-2.39,1.74-3.74,1.73-1.55,0-2.58-1.45-3.45-2.83-.09-.14-.21,0-.23.12-.29,2.42.38,5,2.94,5.63,2.33.58,4.25-1.38,5.11-3.75C156.88,266.35,156.56,265.64,156.09,265.89Z" style="fill:#263238"></path><path d="M189.69,331c-5.51-.45-11,.26-16.5-.39a71.69,71.69,0,0,1-15.61-3.71,49.61,49.61,0,0,1-15-8c-.29-.24-.23-.06,0,.21a40.91,40.91,0,0,0,12.54,8.53,60.17,60.17,0,0,0,14.2,4.61,65.14,65.14,0,0,0,15.27,1c5.82-.26,12.75-.86,16.54,4.59.1.14.33,0,.24-.14C199.15,333.41,194.34,331.39,189.69,331Z" style="fill:#263238"></path><path d="M218.78,332.26a14.23,14.23,0,0,1,3.08-5.43,29.38,29.38,0,0,1,4.77-4.1c3.39-2.42,6.84-4.58,10.08-7.07a35,35,0,0,0,8.67-8.27,113.56,113.56,0,0,0,6.22-10.59,51.8,51.8,0,0,1-4.9,11.46,26,26,0,0,1-3.95,5,49.23,49.23,0,0,1-4.85,4A123.93,123.93,0,0,1,227.49,324a35.57,35.57,0,0,0-5,3.5A16.67,16.67,0,0,0,218.78,332.26Z" style="fill:#263238"></path><path d="M132.58,250.45a10.87,10.87,0,0,0,7.3-3.07c4.07-3.91,4.4-7.6,4.4-7.6,4.45-3.09,7.83-8.8,6.85-14.09A15.24,15.24,0,0,0,165.4,221c3.64,15,23.21,21.2,36.3,13,.55,6.11,2.4,12.31,6.9,16.64a31.36,31.36,0,0,0,15.68,8.25.29.29,0,0,0,0,.09c-3.07,11.4,8.52,21.09,19.3,18.89a17.08,17.08,0,0,0,3-.59c5.22-1.58,10.32-4.16,12.43-9.43a15,15,0,0,0-6.59-18.45,13.44,13.44,0,0,0,2-16.62c-2.1-3.35-7.14-4.94-7.64-8.93a20.62,20.62,0,0,0-16.9-18.21,12.46,12.46,0,0,1-6.56-2.8,38,38,0,0,0-3.81-3,28.6,28.6,0,0,0-17.72-4.55c-3.66.28-7.3,2.11-10.93,1.09-3.15-.88-13.07-.16-16.3.56-14.08,3.13-19.87,9.58-19.87,9.58s-7.38,1.55-13.58,10.37c-5.93,8.42-6,13-6,13a57.18,57.18,0,0,1-2.83,6.7C128.63,242.22,132.19,250.46,132.58,250.45Zm91.86,9.1c1.8,8.45,4.52,12.33,7.9,15C227.07,271.52,223.43,266.12,224.44,259.55ZM166.7,221.32a26.6,26.6,0,0,0,19.1,14.25C177.31,234.79,169.93,230.44,166.7,221.32Z" style="fill:#263238"></path><path d="M225.75,277.47s8.4-18.68,18.9-19.94c11.1-1.34,15,18.7,8,27.7-8.16,10.55-22.18,8-22.18,8Z" style="fill: rgb(247, 169, 160);"></path><path d="M242.22,269.65a26.86,26.86,0,0,1,4.95-4.15c.21-.13,0-.49-.22-.38C239.25,269,232.61,278,234.5,287a.29.29,0,0,0,.57,0c.14-.83.27-1.64.41-2.45,1.22-2.32,2.32-4.42,4.49-6.12a14.47,14.47,0,0,1,7.19-3c.31,0,.23-.47-.07-.47a14.4,14.4,0,0,0-10.7,5.14,23.29,23.29,0,0,1,2.41-6,27,27,0,0,1,3.42-4.56" style="fill:#263238"></path><path d="M232.74,292.7a.06.06,0,0,0,0,.11A.06.06,0,0,0,232.74,292.7Z" style="fill:#263238"></path><path d="M248.89,302.79c.68,2.81,6.14-8.89,6.14-10.41s4.35-7.19,5-10.34,1.15-12,.82-14,1.83-7.84.83-11.23-11.09-33.33-37.3-47.8-44.67-10.56-44.67-10.56a131.72,131.72,0,0,0-27.84,6.74c-14.56,5.32-25.87,46.32-25.7,47.1s1.85,2.85,1.76,5.14-1.74,5.12,0,6.79.24,7.69.9,9.83,1.39,2.52,1.43,4.09S126.35,240,168,213.72C168,213.72,234.17,242.46,248.89,302.79Z" style="fill:#9934AA"></path><path d="M130.22,277.74a1.91,1.91,0,0,1,0,.43C130.26,278.3,130.24,278.15,130.22,277.74Z" style="fill:#9934AA"></path><path d="M130.22,277.74a2,2,0,0,1,0,.43C130.26,278.3,130.24,278.15,130.22,277.74Z" style="fill:#9934AA"></path><path d="M139.79,232.65a4,4,0,0,1-7.76,1.48s0,0,0,0c.65-1.69,1.36-3.41,2.11-5.15h0a4,4,0,0,1,5.65,3.69Zm14.36-12.6a4,4,0,0,0-4,4,4,4,0,0,0,1.31,3c1.8-1.85,3.75-3.68,5.86-5.47A4,4,0,0,0,154.15,220.05ZM134.29,247.6a4,4,0,0,0-.5,8,74.18,74.18,0,0,1,2.87-7.23A3.93,3.93,0,0,0,134.29,247.6Zm71.59-46.45a4,4,0,0,0-.51,2,4,4,0,0,0,8,.68C210.75,202.73,208.25,201.87,205.88,201.15ZM218,232.65a4,4,0,1,0,4,4A4,4,0,0,0,218,232.65Zm-56.34-30.53h0c-2.33.64-4.8,1.38-7.32,2.24v0a4,4,0,1,0,8,0A4,4,0,0,0,161.65,202.12Zm20.13,1a4,4,0,1,0,4,4A4,4,0,0,0,181.78,203.11Zm16.41,15.46a4,4,0,1,0,4,4A4,4,0,0,0,198.19,218.57Zm30.21-4a4,4,0,1,0,4,4A4,4,0,0,0,228.4,214.55Zm8.73,29.34a4,4,0,1,0,4,4A4,4,0,0,0,237.13,243.89Zm9.47,44.46a3.93,3.93,0,0,0-2.15.63c1,2.4,1.85,4.87,2.63,7.39a4,4,0,0,0-.48-8ZM228.4,260a4.08,4.08,0,0,0-.93.11q2.28,2.87,4.41,5.91a3.89,3.89,0,0,0,.54-2A4,4,0,0,0,228.4,260Zm18.51-31a4,4,0,1,0,4.5,6.45C250.06,233.27,248.56,231.1,246.91,228.93Zm1.55,35.79a4,4,0,1,0,4,4A4,4,0,0,0,248.46,264.72Zm10.7,10.78a4,4,0,0,0,1.35,3c.19-2,.34-4.33.41-6.31A4,4,0,0,0,259.16,275.5Zm-.9-27.48a4,4,0,0,0,.9,7.95,3.88,3.88,0,0,0,2-.57C260.67,253.81,259.71,251.22,258.26,248Z" style="fill:#fff;opacity:0.30000000000000004"></path><path d="M255,292.38a43.67,43.67,0,0,0-2.2-8.25c-.9-2.71-1.89-5.38-2.9-8.05-2-5.33-4.1-10.65-6.4-15.86-.57-1.3-1.13-2.63-1.78-3.86a18.59,18.59,0,0,0-2.57-3.26c-1.92-2.08-4-4-6.07-6s-4.18-3.89-6.3-5.8l-6.36-5.74q6.77,5.27,13.18,11c2.15,1.89,4.23,3.86,6.22,5.94a18.93,18.93,0,0,1,2.74,3.43c.7,1.29,1.27,2.6,1.85,3.91q3.36,7.9,6.21,16c.93,2.71,1.84,5.42,2.64,8.16.4,1.38.78,2.76,1.1,4.16A20.89,20.89,0,0,1,255,292.38Z" style="fill:#050400;opacity:0.1"></path><path d="M236.07,236.67a76.22,76.22,0,0,1,15.46,13.38,48.29,48.29,0,0,1,6,8.37,28.12,28.12,0,0,1,3.37,9.65c-.26-.82-.51-1.63-.74-2.44a6.6,6.6,0,0,0-.45-1.19l-.5-1.16c-.17-.39-.31-.78-.49-1.16l-.6-1.12c-.42-.73-.76-1.5-1.25-2.2l-1.37-2.12L254,254.63c-.48-.69-1-1.33-1.56-2s-1.05-1.32-1.63-1.94a96.91,96.91,0,0,0-7-7.3c-1.22-1.18-2.48-2.31-3.77-3.43S237.39,237.75,236.07,236.67Z" style="fill:#050400;opacity:0.1"></path><path d="M127.93,255.6a52.85,52.85,0,0,1,3-9.26c1.18-3,2.48-6,3.82-8.93a95.92,95.92,0,0,1,4.39-8.71,32.8,32.8,0,0,1,6.35-7.38,42.07,42.07,0,0,0-3.06,3.75,35.13,35.13,0,0,0-2.63,4c-.76,1.4-1.43,2.86-2.11,4.33l-2,4.4-4,8.82c-.68,1.47-1.32,3-2,4.44A38.6,38.6,0,0,0,127.93,255.6Z" style="fill:#050400;opacity:0.1"></path><path d="M128.59,265.57a53.53,53.53,0,0,1,1.32-6.88,66.58,66.58,0,0,1,2-6.72,31.05,31.05,0,0,1,1.4-3.26c.57-1,1.11-2.05,1.71-3.06l1.74-3c.62-1,1.2-2,1.84-3-.44,1.08-.94,2.14-1.4,3.21l-1.5,3.15c-.49,1.06-1,2.09-1.54,3.13a32.67,32.67,0,0,0-1.31,3.18c-.81,2.17-1.51,4.38-2.24,6.59q-.54,1.65-1.05,3.33C129.24,263.33,128.92,264.45,128.59,265.57Z" style="fill:#050400;opacity:0.1"></path><path d="M219,206.28c-6.67,5.48-22,17.8-26.09,18.65a28.52,28.52,0,0,1-4.23.38A154.87,154.87,0,0,0,168,213.72a91,91,0,0,0-13.61,10.41,86.44,86.44,0,0,1-14.82-6.08c3.62-6.18,7.79-11.19,12.27-12.83a131.72,131.72,0,0,1,27.84-6.74S195.67,195.11,219,206.28Z" style="fill:#050400;opacity:0.1"></path><path d="M168.27,204.59s-21.1-15.15-42.8-8.84c0,0,9.41,20.2,19.52,23.92,5,1.85,21.84-3.52,22.61-7A40,40,0,0,0,168.27,204.59Z" style="fill:#9934AA"></path><path d="M145.86,195.17a4,4,0,0,1-7.42-.91A46.6,46.6,0,0,1,145.86,195.17Zm-10,13a4,4,0,0,0-2.56.92,47.71,47.71,0,0,0,5.18,6.15,4,4,0,0,0,1.4-3A4,4,0,0,0,135.91,208.16Zm22.43-7.79a4,4,0,1,0,4,4A4,4,0,0,0,158.34,200.37Z" style="fill:#fff;opacity:0.30000000000000004"></path><path d="M168.28,204.6a41.71,41.71,0,0,1-.68,8,.91.91,0,0,1-.19.45,1.71,1.71,0,0,1-.34.5c-.11.09-.2.21-.35.33-1.55,1.49-5,3.05-8.77,4.22a53.34,53.34,0,0,1-1.5-9.84c-.07-2.59,1.79-5.64,3.83-8.23A53.89,53.89,0,0,1,168.28,204.6Z" style="fill:#050400;opacity:0.1"></path><path d="M174.51,205.29s27-16.51,43.48-16.06c0,0-1.28,18.2-14.17,28-5.77,4.37-29.63.54-30-3.28A31.28,31.28,0,0,1,174.51,205.29Z" style="fill:#9934AA"></path><path d="M213.42,203.11a4,4,0,1,1-4-4A4,4,0,0,1,213.42,203.11Zm-31.64,0a4,4,0,1,0,4,4A4,4,0,0,0,181.78,203.11Zm16.41,15.46a3.91,3.91,0,0,0-1.95.51,26.74,26.74,0,0,0,3.15-.33A4,4,0,0,0,198.19,218.57Z" style="fill:#fff;opacity:0.30000000000000004"></path><path d="M180.74,201.75c1.65,2.46,3.54,6.17,3.48,9.76a15.62,15.62,0,0,1-1.81,6.32c-4.79-1-8.44-2.46-8.62-4a31.71,31.71,0,0,1,.72-8.6S176.91,203.8,180.74,201.75Z" style="fill:#050400;opacity:0.1"></path><path d="M180.26,210.56a10.27,10.27,0,1,1-9.39-11.09A10.28,10.28,0,0,1,180.26,210.56Z" style="fill:#9934AA"></path></g></svg>