<svg width="1373" height="63" viewBox="0 0 1373 63" fill="none" xmlns="http://www.w3.org/2000/svg">
<path d="M0 0H1373V30H0V0Z" fill="#312F2F"/>
<path d="M65.1504 20.9365C65.1504 20.9661 65.1081 20.9873 65.0234 21C64.8626 21.0254 64.4585 21.0381 63.811 21.0381C63.2567 21.0381 62.88 21.0254 62.6812 21C62.5881 20.9873 62.5352 20.9767 62.5225 20.9683C62.4971 20.9556 62.4674 20.9132 62.4336 20.8413C62.3701 20.6763 62.277 20.4308 62.1543 20.105C61.9893 19.6818 61.7311 19.0576 61.3799 18.2324C61.3037 18.0674 61.1281 17.9764 60.853 17.9595C60.98 17.9679 60.762 17.9722 60.1992 17.9722C60.1357 17.9722 60.104 18.0801 60.104 18.2959C60.104 18.5837 60.1294 19.0132 60.1802 19.5845C60.2352 20.1558 60.2627 20.5853 60.2627 20.873C60.2627 20.945 60.2437 20.9873 60.2056 21C60.1463 21.0042 60.0871 21.0085 60.0278 21.0127C59.7782 21.0296 59.3888 21.0381 58.8599 21.0381C58.2547 21.0381 57.8908 21.0254 57.7681 21C57.6453 20.9746 57.584 20.909 57.584 20.8032C57.584 20.3377 57.6051 19.6353 57.6475 18.6958C57.694 17.7563 57.7173 17.0518 57.7173 16.582C57.7173 14.792 57.6771 13.3955 57.5967 12.3926L57.5903 12.3037C57.5861 12.2318 57.6517 12.1831 57.7871 12.1577C57.9268 12.1323 58.5742 12.1069 59.7295 12.0815C60.5124 12.0646 61.1366 12.0562 61.6021 12.0562C62.5669 12.0562 63.354 12.2741 63.9634 12.71C64.6532 13.2008 64.998 13.9097 64.998 14.8364C64.998 15.4543 64.9092 15.9473 64.7314 16.3154C64.5537 16.6836 64.2257 17.0412 63.7476 17.3882C63.6502 17.4559 63.6016 17.5194 63.6016 17.5786C63.6016 17.5744 63.8597 18.1055 64.376 19.1719C64.8923 20.2383 65.1504 20.8265 65.1504 20.9365ZM62.4844 15.2427C62.4844 14.7264 62.3151 14.3688 61.9766 14.1699C61.7142 14.0176 61.3037 13.9414 60.7451 13.9414C60.3431 13.9414 60.1294 14.0028 60.104 14.1255C60.0786 14.2694 60.0659 14.6841 60.0659 15.3696C60.0659 15.467 60.068 15.6108 60.0723 15.8013C60.0765 15.9917 60.0786 16.1335 60.0786 16.2266C60.0786 16.2477 60.1463 16.2689 60.2817 16.29C60.5399 16.3281 60.8107 16.3472 61.0942 16.3472C62.021 16.3472 62.4844 15.979 62.4844 15.2427ZM74.779 19.0259C74.779 19.2078 74.7431 19.5422 74.6711 20.0288C74.5949 20.5578 74.5272 20.873 74.468 20.9746C74.4172 21.055 74.3474 21.0952 74.2585 21.0952C74.2204 21.0952 74.157 21.0889 74.0681 21.0762C73.7592 21.0339 72.8578 21.0127 71.364 21.0127C71.0381 21.0127 70.5536 21.0106 69.9104 21.0063C69.2671 21.0021 68.7847 21 68.4631 21C68.3235 21 68.2536 20.9386 68.2536 20.8159C68.2536 20.342 68.279 19.631 68.3298 18.6831C68.3848 17.731 68.4123 17.0179 68.4123 16.5439C68.4123 16.0615 68.3869 15.1623 68.3362 13.8462C68.3235 13.5076 68.3002 13.002 68.2663 12.3291L68.26 12.2402C68.2515 12.1429 68.3044 12.0942 68.4187 12.0942C68.7318 12.0942 69.2015 12.1027 69.8279 12.1196C70.4584 12.1366 70.9302 12.145 71.2434 12.145C71.5523 12.145 72.0178 12.1366 72.6399 12.1196C73.2619 12.1027 73.7274 12.0942 74.0363 12.0942C74.2564 12.0942 74.3834 12.1768 74.4172 12.3418C74.4384 12.4391 74.4701 12.7354 74.5124 13.2305C74.559 13.7214 74.5822 14.0197 74.5822 14.1255C74.5822 14.2144 74.5399 14.2588 74.4553 14.2588C74.4299 14.2588 74.3855 14.2567 74.322 14.2524C73.1963 14.1593 72.1849 14.1128 71.2878 14.1128C71.0635 14.1128 70.926 14.1657 70.8752 14.2715C70.8541 14.3223 70.8435 14.4852 70.8435 14.7603C70.8435 15.048 70.8858 15.2384 70.9704 15.3315C71.0424 15.4119 71.1799 15.4521 71.383 15.4521C71.4253 15.4521 71.5079 15.45 71.6306 15.4458C71.7533 15.4373 71.8549 15.4331 71.9353 15.4331C72.4685 15.4331 73.008 15.4183 73.5539 15.3887C73.6005 15.3844 73.7168 15.3739 73.903 15.3569C74.0469 15.34 74.1612 15.3315 74.2458 15.3315C74.3474 15.3315 74.3982 15.3802 74.3982 15.4775C74.3982 15.3887 74.3601 15.7124 74.2839 16.4487C74.2501 16.7873 74.2331 17.1258 74.2331 17.4644C74.2331 17.549 74.1718 17.5913 74.049 17.5913C74.049 17.5913 73.8586 17.5701 73.4778 17.5278C73.2365 17.5024 72.6864 17.4897 71.8274 17.4897H71.1545C70.981 17.4897 70.8794 17.5321 70.8498 17.6167C70.8456 17.6379 70.8435 17.769 70.8435 18.0103C70.8435 18.3319 70.8646 18.5392 70.907 18.6323C70.9789 18.7931 71.2497 18.8883 71.7195 18.918C71.711 18.918 72.0199 18.918 72.6462 18.918C72.8705 18.918 73.2027 18.8989 73.6428 18.8608C74.0871 18.8185 74.4193 18.7974 74.6394 18.7974C74.7325 18.7974 74.779 18.8735 74.779 19.0259ZM82.3637 18.0801C82.3637 18.9391 82.0019 19.6755 81.2783 20.2891C80.6435 20.8307 79.8712 21.1756 78.9614 21.3237C78.9275 21.328 78.9 21.3301 78.8788 21.3301C78.7815 21.3301 78.5657 21.0339 78.2314 20.4414C77.8971 19.8447 77.7299 19.4808 77.7299 19.3496C77.7299 19.3031 77.7617 19.2734 77.8251 19.2607C78.4387 19.1211 78.845 19.0026 79.0439 18.9053C79.484 18.6852 79.704 18.3594 79.704 17.9277C79.704 17.6527 79.5602 17.3459 79.2724 17.0073C78.7731 16.4318 78.5022 16.1123 78.4599 16.0488C78.1679 15.6087 78.0219 15.1221 78.0219 14.5889C78.0219 13.8145 78.3795 13.1712 79.0947 12.6592C79.6787 12.236 80.3959 11.9609 81.2465 11.834C81.2931 11.8298 81.329 11.8276 81.3544 11.8276C81.4179 11.8276 81.4687 11.8784 81.5068 11.98C81.6168 12.2889 81.8728 12.8475 82.2748 13.6558C82.2875 13.6812 82.2939 13.7023 82.2939 13.7192C82.2939 13.7912 82.2558 13.8271 82.1796 13.8271C82.1458 13.8271 82.0886 13.8208 82.0082 13.8081C81.9278 13.7954 81.8665 13.7891 81.8242 13.7891C81.5195 13.7891 81.2529 13.8589 81.0244 13.9985C80.7493 14.1593 80.6118 14.3836 80.6118 14.6714C80.6118 14.9295 80.7641 15.2469 81.0688 15.6235C81.6062 16.3006 81.8876 16.6561 81.913 16.6899C82.2135 17.1554 82.3637 17.6188 82.3637 18.0801ZM93.4015 17.8833C93.4015 18.9624 93.2725 19.6987 93.0143 20.0923C92.5404 20.8117 91.3576 21.1714 89.466 21.1714C88.6112 21.1714 87.9531 21.1058 87.4919 20.9746C86.7555 20.763 86.2773 20.3589 86.0573 19.7622C85.9473 19.4702 85.8922 18.9497 85.8922 18.2007C85.8922 18.0272 85.8986 17.769 85.9113 17.4263C85.924 17.0835 85.9303 16.8275 85.9303 16.6582C85.9303 16.1673 85.9071 15.431 85.8605 14.4492C85.814 13.4674 85.7907 12.7332 85.7907 12.2466C85.7907 12.145 85.8351 12.0942 85.924 12.0942C86.1821 12.0942 86.5714 12.1048 87.092 12.126C87.6167 12.1471 88.0081 12.1577 88.2663 12.1577C88.3721 12.1577 88.425 12.2043 88.425 12.2974C88.425 12.856 88.4059 13.6938 88.3678 14.811C88.334 15.924 88.3171 16.7598 88.3171 17.3184C88.3171 17.9827 88.3869 18.4313 88.5265 18.6641C88.7127 18.9814 89.102 19.1401 89.6945 19.1401C90.562 19.1401 90.9958 18.7191 90.9958 17.877C90.9958 17.2633 90.981 16.3429 90.9513 15.1157C90.9217 13.8885 90.9069 12.9681 90.9069 12.3545C90.9069 12.2233 90.9598 12.1577 91.0656 12.1577C91.3153 12.1577 91.6919 12.1471 92.1955 12.126C92.699 12.1048 93.0757 12.0942 93.3254 12.0942C93.4481 12.0942 93.5094 12.145 93.5094 12.2466C93.5094 12.7332 93.4883 13.4674 93.446 14.4492C93.4079 15.431 93.3888 16.1673 93.3888 16.6582C93.3888 16.7936 93.3909 16.9989 93.3952 17.2739C93.3994 17.5448 93.4015 17.7479 93.4015 17.8833ZM102.897 21.1079C102.533 21.1079 102.059 21.0994 101.475 21.0825C100.713 21.0656 100.239 21.055 100.053 21.0508L98.1552 21.0254C97.9647 21.0296 97.6918 21.0212 97.3363 21C97.2136 20.9788 97.1522 20.9132 97.1522 20.8032C97.1522 20.342 97.1586 19.6522 97.1713 18.7339C97.1882 17.8114 97.1967 17.1195 97.1967 16.6582C97.1967 16.1673 97.1818 15.4331 97.1522 14.4556C97.1226 13.4738 97.1078 12.7375 97.1078 12.2466C97.1078 12.1535 97.1713 12.1069 97.2982 12.1069C97.4252 12.1069 97.6135 12.1133 97.8632 12.126C98.1171 12.1387 98.3054 12.145 98.4281 12.145C98.5678 12.145 98.7751 12.1387 99.0502 12.126C99.3252 12.109 99.5326 12.1006 99.6722 12.1006C99.7357 12.1006 99.7653 12.1408 99.7611 12.2212L99.7548 12.3037C99.704 13.0993 99.6469 14.2948 99.5834 15.8901L99.577 17.5659C99.577 18.1076 99.5791 18.5033 99.5834 18.7529C99.5876 18.8037 99.5918 18.8545 99.5961 18.9053C99.6003 18.9561 99.632 18.9878 99.6913 19.0005C99.6955 19.0005 99.7505 19.0005 99.8563 19.0005C100.237 19.0005 100.806 18.9814 101.564 18.9434C102.326 18.901 102.897 18.8799 103.278 18.8799C103.392 18.8799 103.449 18.9285 103.449 19.0259C103.449 19.7495 103.396 20.3737 103.29 20.8984C103.269 21.0085 103.225 21.0741 103.157 21.0952C103.136 21.1037 103.049 21.1079 102.897 21.1079ZM112.76 14.0366C112.76 14.1213 112.714 14.1636 112.621 14.1636C112.46 14.1636 111.823 14.1318 110.71 14.0684C110.685 15.139 110.672 15.8859 110.672 16.3091C110.672 16.8084 110.691 17.5596 110.729 18.5625C110.771 19.5654 110.793 20.3166 110.793 20.8159C110.793 20.8963 110.774 20.9471 110.735 20.9683C110.723 20.9767 110.664 20.9873 110.558 21C110.304 21.0339 109.931 21.0508 109.441 21.0508C108.895 21.0508 108.512 21.0339 108.292 21C108.173 20.9788 108.114 20.9132 108.114 20.8032C108.114 20.3039 108.135 19.5549 108.177 18.5562C108.22 17.5575 108.241 16.8084 108.241 16.3091C108.241 15.979 108.224 15.2427 108.19 14.1001C107.344 14.1847 106.669 14.2271 106.165 14.2271C106.097 14.2271 106.064 14.2059 106.064 14.1636C106.064 14.1086 106.093 13.9456 106.152 13.6748C106.22 13.3786 106.258 13.1987 106.267 13.1353C106.279 12.9364 106.294 12.7375 106.311 12.5386C106.341 12.2212 106.392 12.0625 106.463 12.0625C106.472 12.0625 106.502 12.0646 106.552 12.0688C107.238 12.1577 108.251 12.2021 109.593 12.2021C109.974 12.2021 110.676 12.1619 111.7 12.0815C112.25 12.0392 112.528 12.0181 112.532 12.0181C112.616 12.0181 112.665 12.0244 112.678 12.0371C112.691 12.0456 112.699 12.0858 112.703 12.1577C112.703 12.272 112.699 12.4307 112.691 12.6338C112.682 12.8581 112.678 13.0168 112.678 13.1099C112.678 13.2157 112.691 13.3722 112.716 13.5796C112.746 13.7827 112.76 13.9351 112.76 14.0366Z" fill="white"/>
</svg>
